<?xml version="1.0" encoding="utf-8"?>
<!-- Generator: Adobe Illustrator 24.0.1, SVG Export Plug-In . SVG Version: 6.00 Build 0)  -->
<svg version="1.1" id="Layer_1" xmlns="http://www.w3.org/2000/svg" xmlns:xlink="http://www.w3.org/1999/xlink" x="0px" y="0px"
	 viewBox="0 0 156.3 41.8" style="enable-background:new 0 0 156.3 41.8;" xml:space="preserve">
<style type="text/css">
	.st0{fill:#FF9718;}
	.st1{fill:#272C30;}
	.st2{fill:none;stroke:#272C30;stroke-width:0.1219;stroke-miterlimit:10;}
</style>
<g>
	<g>
		<path class="st0" d="M10.5,15.9L10.5,15.9C10.5,16,10.5,15.9,10.5,15.9z"/>
		<path class="st0" d="M12.6,35.4c0.3,0,0.7,0,1.1-0.1h-2C11.9,35.4,12.2,35.4,12.6,35.4z"/>
		<path class="st0" d="M10.5,15.8L10.5,15.8L10.5,15.8z"/>
		<g>
			<path class="st0" d="M22.4,23.7L22.4,23.7c0,0-4.7-5.4-4.9-5.7c-0.2-0.2-1-1.2-1.6-2.2c-0.5-0.7-0.9-1.6-0.9-2.6
				C15,11,16.9,9,19.3,9s4.3,1.9,4.3,4.3c0,1.9-1.3,3.5-3,4.1l3.2,3.8c0.7-0.4,1.3-0.9,1.9-1.5c1.7-1.7,2.7-4,2.7-6.4
				s-0.9-4.7-2.7-6.4c-1.7-1.7-4-2.7-6.4-2.7S14.6,5.2,13,6.9c-1.7,1.7-2.7,4-2.7,6.4c0,0.9,0.1,1.6,0.3,2.4v0.1v0.1
				c0.5,1.7,1.8,3.4,2.8,4.5c1.1,1.3,1.5,1.7,2,2.2c0.4,0.5,1.6,2,1.6,3.4c0,2.3-1.9,4.3-4.3,4.3c-2.4,0-4.3-1.9-4.3-4.3
				c0-2,1.3-3.6,3.1-4.1c-0.5-0.6-1.1-1.3-1.6-2.2c-0.4-0.7-0.7-1.3-1-2c-1,0.4-1.9,1.1-2.7,1.9c-1.7,1.7-2.7,4-2.7,6.4
				s0.9,4.7,2.7,6.4c1.5,1.5,3.4,2.4,5.4,2.6h2c2-0.2,3.9-1.1,5.4-2.6c0.9-0.9,1.6-1.9,2-3l4.7,5.7h6.3L22.4,23.7z"/>
		</g>
	</g>
	<g>
		<g>
			<path class="st1" d="M39.9,20.3c-0.9,0-1.6-0.2-2.1-0.5c-0.5-0.3-1.1-0.9-1.3-1.5c-0.4-0.6-0.5-1.4-0.5-2.2
				c0-0.9,0.1-1.6,0.5-2.2c0.3-0.6,0.7-1.1,1.3-1.5c0.5-0.3,1.3-0.5,2.1-0.5c1,0,1.8,0.2,2.3,0.7c0.6,0.5,1,1.1,1.1,2h-1.4
				c-0.1-0.5-0.3-0.9-0.7-1.1c-0.3-0.3-0.9-0.4-1.4-0.4c-0.9,0-1.5,0.3-2,0.9c-0.5,0.5-0.7,1.3-0.7,2.3c0,1,0.2,1.8,0.7,2.2
				c0.5,0.5,1.1,0.9,2,0.9c0.6,0,1.1-0.1,1.4-0.4c0.3-0.3,0.5-0.6,0.7-1.1h1.5c-0.1,0.9-0.5,1.5-1.1,1.9
				C41.6,20.1,40.8,20.3,39.9,20.3z"/>
			<path class="st1" d="M46.7,20.3c-0.5,0-0.9-0.1-1.2-0.2c-0.3-0.1-0.5-0.3-0.7-0.6c-0.1-0.3-0.2-0.5-0.2-0.9c0-0.5,0.2-1,0.6-1.3
				s1.1-0.5,1.9-0.5h1.6v-0.1c0-0.4-0.1-0.7-0.3-1c-0.2-0.2-0.5-0.3-1-0.3c-0.3,0-0.6,0.1-0.9,0.3c-0.3,0.1-0.4,0.4-0.5,0.7h-1.2
				c0.1-0.4,0.2-0.7,0.4-1.1c0.3-0.3,0.5-0.5,0.9-0.7c0.3-0.1,0.7-0.2,1.3-0.2c0.9,0,1.4,0.2,1.9,0.6c0.4,0.4,0.6,1,0.6,1.8v3.6
				h-1.1l-0.1-1c-0.1,0.3-0.4,0.5-0.7,0.7C47.6,20.2,47.2,20.3,46.7,20.3z M46.9,19.4c0.3,0,0.6-0.1,0.9-0.2
				c0.2-0.1,0.4-0.3,0.5-0.6c0.1-0.3,0.2-0.5,0.2-0.9h-1.4c-0.5,0-0.9,0.1-1.1,0.3c-0.2,0.1-0.3,0.3-0.3,0.6s0.1,0.5,0.3,0.6
				C46.3,19.3,46.6,19.4,46.9,19.4z"/>
			<path class="st1" d="M53.6,20.2c-0.5,0-1.1-0.1-1.3-0.4c-0.3-0.3-0.5-0.7-0.5-1.5v-2.9h-1v-1.1h1l0.1-1.5H53v1.5h1.6v1.1H53v2.9
				c0,0.3,0.1,0.5,0.2,0.6c0.1,0.1,0.3,0.2,0.7,0.2h0.6v1.1C54.4,20.2,53.6,20.2,53.6,20.2z"/>
			<path class="st1" d="M58.3,20.2c-0.5,0-1.1-0.1-1.3-0.4c-0.3-0.3-0.5-0.7-0.5-1.5v-2.9h-1v-1.1h1l0.1-1.5h1.1v1.5h1.6v1.1h-1.6
				v2.9c0,0.3,0.1,0.5,0.2,0.6c0.1,0.1,0.3,0.2,0.7,0.2h0.6v1.1C59.2,20.2,58.3,20.2,58.3,20.2z"/>
			<path class="st1" d="M62.6,20.3c-0.5,0-0.9-0.1-1.2-0.2c-0.3-0.1-0.5-0.3-0.7-0.6c-0.1-0.3-0.2-0.5-0.2-0.9c0-0.5,0.2-1,0.6-1.3
				c0.4-0.3,1.1-0.5,1.9-0.5h1.6v-0.1c0-0.4-0.1-0.7-0.3-1c-0.2-0.2-0.5-0.3-1-0.3c-0.3,0-0.6,0.1-0.9,0.3c-0.3,0.1-0.4,0.4-0.5,0.7
				h-1.3c0.1-0.4,0.2-0.7,0.4-1.1c0.3-0.3,0.5-0.5,0.9-0.7c0.3-0.1,0.7-0.2,1.3-0.2c0.9,0,1.4,0.2,1.9,0.6c0.4,0.4,0.6,1,0.6,1.8
				v3.6h-1.1l-0.1-1c-0.1,0.3-0.4,0.5-0.7,0.7C63.5,20.2,63.1,20.3,62.6,20.3z M62.9,19.4c0.3,0,0.6-0.1,0.9-0.2
				c0.2-0.1,0.4-0.3,0.5-0.6s0.2-0.5,0.2-0.9h-1.4c-0.5,0-0.9,0.1-1.1,0.3c-0.2,0.1-0.3,0.3-0.3,0.6s0.1,0.5,0.3,0.6
				C62.3,19.3,62.5,19.4,62.9,19.4z"/>
			<path class="st1" d="M67.2,20.2v-5.9h1.1l0.1,1c0.2-0.3,0.4-0.6,0.7-0.9c0.3-0.2,0.7-0.3,1.2-0.3c0.7,0,1.3,0.2,1.7,0.6
				c0.4,0.4,0.6,1.1,0.6,2v3.3h-1.3v-3.2c0-1.1-0.5-1.7-1.4-1.7c-0.5,0-0.9,0.1-1.1,0.5c-0.3,0.3-0.4,0.7-0.4,1.4v3h-1.3L67.2,20.2
				L67.2,20.2z"/>
			<path class="st1" d="M76.8,20.3c-0.5,0-1.1-0.1-1.6-0.3c-0.4-0.3-0.7-0.6-1.1-1.1c-0.3-0.4-0.3-1-0.3-1.6c0-0.6,0.1-1.1,0.3-1.6
				c0.3-0.5,0.5-0.9,1.1-1.1c0.4-0.3,1-0.4,1.6-0.4s1.1,0.1,1.5,0.3c0.4,0.3,0.7,0.5,1,1c0.2,0.4,0.3,0.9,0.3,1.4c0,0.1,0,0.1,0,0.3
				c0,0.1,0,0.2,0,0.3h-4.5c0.1,0.5,0.2,1,0.5,1.3c0.3,0.3,0.7,0.4,1.1,0.4c0.3,0,0.6-0.1,0.9-0.2c0.2-0.1,0.4-0.3,0.5-0.6h1.3
				c-0.1,0.5-0.5,1-0.9,1.3C78,20.1,77.5,20.3,76.8,20.3z M76.8,15.3c-0.4,0-0.7,0.1-1.1,0.3c-0.3,0.2-0.5,0.6-0.5,1.1h3.3
				c0-0.4-0.2-0.9-0.5-1.1C77.6,15.4,77.2,15.3,76.8,15.3z"/>
			<path class="st1" d="M83.6,20.3c-0.5,0-1.1-0.1-1.5-0.3c-0.4-0.3-0.7-0.6-1.1-1.1c-0.3-0.5-0.3-1-0.3-1.6c0-0.6,0.1-1.1,0.4-1.6
				c0.3-0.4,0.6-0.9,1.1-1.1c0.4-0.3,0.9-0.3,1.5-0.3c0.5,0,1.1,0.1,1.5,0.3c0.4,0.3,0.7,0.6,1.1,1.1c0.3,0.4,0.4,1,0.4,1.6
				c0,0.6-0.1,1.1-0.4,1.6c-0.3,0.4-0.6,0.9-1.1,1.1C84.7,20.2,84.2,20.3,83.6,20.3z M83.6,19.3c0.3,0,0.5-0.1,0.9-0.2
				c0.3-0.1,0.5-0.3,0.6-0.6c0.1-0.3,0.2-0.6,0.2-1.1c0-0.4-0.1-0.7-0.2-1.1c-0.1-0.4-0.3-0.5-0.6-0.6c-0.3-0.1-0.5-0.2-0.9-0.2
				s-0.5,0.1-0.9,0.2c-0.3,0.1-0.5,0.3-0.6,0.6c-0.1,0.3-0.2,0.6-0.2,1.1c0,0.4,0.1,0.7,0.2,1.1c0.1,0.3,0.3,0.5,0.6,0.6
				C83.1,19.3,83.4,19.3,83.6,19.3z"/>
			<path class="st1" d="M93.5,20.3c-0.5,0-1.1-0.1-1.6-0.3s-0.7-0.5-1-0.9c-0.2-0.3-0.3-0.9-0.3-1.3c0-0.5,0.1-1.1,0.5-1.5
				c0.3-0.4,0.7-0.7,1.3-1.1c-0.3-0.3-0.4-0.5-0.5-0.7c-0.1-0.3-0.1-0.5-0.1-0.9c0-0.5,0.2-1,0.5-1.3c0.4-0.3,0.9-0.5,1.6-0.5
				c0.4,0,0.9,0.1,1.2,0.3c0.3,0.1,0.5,0.4,0.7,0.7c0.1,0.3,0.3,0.6,0.2,1h-1.2c0-0.3-0.1-0.5-0.3-0.7c-0.2-0.1-0.4-0.2-0.7-0.2
				c-0.3,0-0.5,0.1-0.7,0.3c-0.2,0.1-0.3,0.3-0.3,0.6c0,0.2,0.1,0.4,0.2,0.6c0.1,0.2,0.3,0.5,0.5,0.7l2.5,2.5
				c0.2-0.3,0.4-0.6,0.6-1.1l0.3-0.5h1.3l-0.5,0.9c-0.3,0.6-0.6,1.1-0.9,1.6l1.8,1.8h-1.6l-1-1c-0.4,0.4-0.9,0.7-1.3,0.9
				C94.6,20.3,94,20.3,93.5,20.3z M91.8,17.8c0,0.4,0.1,0.7,0.5,1.1c0.3,0.3,0.7,0.4,1.3,0.4c0.3,0,0.7-0.1,1.1-0.2
				c0.3-0.1,0.6-0.3,0.9-0.7l-2.3-2.3c-0.4,0.2-0.7,0.4-1,0.7C91.9,17.1,91.8,17.4,91.8,17.8z"/>
			<path class="st1" d="M106.4,20.3c-0.9,0-1.6-0.2-2.1-0.5s-1.1-0.9-1.3-1.5c-0.3-0.6-0.5-1.4-0.5-2.2c0-0.9,0.1-1.6,0.5-2.2
				s0.7-1.1,1.3-1.5c0.5-0.3,1.3-0.5,2.1-0.5c1,0,1.8,0.2,2.3,0.7c0.6,0.5,1,1.1,1.1,2h-1.4c-0.1-0.5-0.3-0.9-0.7-1.1
				c-0.3-0.3-0.9-0.4-1.4-0.4c-0.9,0-1.5,0.3-2,0.9c-0.5,0.5-0.7,1.3-0.7,2.3c0,1,0.2,1.8,0.7,2.2c0.5,0.5,1.1,0.9,2,0.9
				c0.6,0,1.1-0.1,1.4-0.4c0.3-0.3,0.5-0.6,0.7-1.1h1.4c-0.1,0.9-0.5,1.5-1.1,1.9C108.1,20.1,107.4,20.3,106.4,20.3z"/>
			<path class="st1" d="M113.2,20.3c-0.5,0-0.9-0.1-1.2-0.2c-0.3-0.1-0.5-0.3-0.7-0.6c-0.1-0.3-0.2-0.5-0.2-0.9c0-0.5,0.2-1,0.6-1.3
				c0.4-0.3,1.1-0.5,1.9-0.5h1.6v-0.1c0-0.4-0.1-0.7-0.3-1c-0.3-0.2-0.5-0.3-1-0.3c-0.3,0-0.6,0.1-0.9,0.3c-0.3,0.1-0.4,0.4-0.5,0.7
				h-1.3c0.1-0.4,0.2-0.7,0.4-1.1c0.2-0.3,0.5-0.5,0.9-0.7c0.3-0.1,0.7-0.2,1.3-0.2c0.9,0,1.4,0.2,1.9,0.6c0.4,0.4,0.6,1,0.6,1.8
				v3.6h-1.1l-0.1-1c-0.1,0.3-0.4,0.5-0.7,0.7C114.1,20.2,113.7,20.3,113.2,20.3z M113.5,19.4c0.3,0,0.6-0.1,0.9-0.2
				c0.2-0.1,0.4-0.3,0.5-0.6c0.1-0.3,0.2-0.5,0.2-0.9h-1.4c-0.5,0-0.9,0.1-1.1,0.3c-0.2,0.1-0.3,0.3-0.3,0.6s0.1,0.5,0.3,0.6
				C112.8,19.3,113.1,19.4,113.5,19.4z"/>
			<path class="st1" d="M120.1,20.2c-0.5,0-1.1-0.1-1.3-0.4c-0.3-0.3-0.5-0.7-0.5-1.5v-2.9h-1v-1.1h1l0.1-1.5h1.1v1.5h1.6v1.1h-1.6
				v2.9c0,0.3,0.1,0.5,0.2,0.6c0.1,0.1,0.3,0.2,0.7,0.2h0.6v1.1C121,20.2,120.1,20.2,120.1,20.2z"/>
			<path class="st1" d="M124.9,20.2c-0.5,0-1.1-0.1-1.3-0.4c-0.3-0.3-0.5-0.7-0.5-1.5v-2.9h-1v-1.1h1l0.1-1.5h1.1v1.5h1.6v1.1h-1.7
				v2.9c0,0.3,0.1,0.5,0.2,0.6c0.1,0.1,0.3,0.2,0.7,0.2h0.6v1.1C125.7,20.2,124.9,20.2,124.9,20.2z"/>
			<path class="st1" d="M129.1,20.3c-0.5,0-0.9-0.1-1.2-0.2c-0.3-0.1-0.5-0.3-0.7-0.6c-0.1-0.3-0.2-0.5-0.2-0.9c0-0.5,0.2-1,0.6-1.3
				c0.4-0.3,1.1-0.5,1.9-0.5h1.6v-0.1c0-0.4-0.1-0.7-0.3-1c-0.3-0.2-0.5-0.3-1-0.3c-0.3,0-0.6,0.1-0.9,0.3c-0.3,0.1-0.4,0.4-0.5,0.7
				H127c0.1-0.4,0.2-0.7,0.4-1.1c0.2-0.3,0.5-0.5,0.9-0.7c0.4-0.1,0.7-0.2,1.3-0.2c0.9,0,1.4,0.2,1.9,0.6c0.4,0.4,0.6,1,0.6,1.8v3.6
				H131l-0.1-1c-0.1,0.3-0.4,0.5-0.7,0.7C130,20.2,129.7,20.3,129.1,20.3z M129.4,19.4c0.3,0,0.6-0.1,0.9-0.2
				c0.2-0.1,0.4-0.3,0.5-0.6s0.2-0.5,0.2-0.9h-1.3c-0.5,0-0.9,0.1-1.1,0.3c-0.2,0.1-0.3,0.3-0.3,0.6s0.1,0.5,0.3,0.6
				C128.7,19.3,129,19.4,129.4,19.4z"/>
			<path class="st1" d="M133.7,20.2v-5.9h1.1l0.1,1c0.2-0.3,0.4-0.6,0.7-0.9c0.3-0.2,0.7-0.3,1.2-0.3c0.7,0,1.3,0.2,1.7,0.6
				c0.4,0.4,0.6,1.1,0.6,2v3.3h-1.2v-3.2c0-1.1-0.5-1.7-1.4-1.7c-0.5,0-0.9,0.1-1.1,0.5c-0.3,0.3-0.4,0.7-0.4,1.4v3h-1.3L133.7,20.2
				L133.7,20.2z"/>
			<path class="st1" d="M143.3,20.3c-0.5,0-1.1-0.1-1.6-0.3c-0.4-0.3-0.7-0.6-1.1-1.1c-0.3-0.4-0.3-1-0.3-1.6c0-0.6,0.1-1.1,0.3-1.6
				c0.2-0.5,0.5-0.9,1.1-1.1c0.4-0.3,1-0.4,1.6-0.4s1.1,0.1,1.5,0.3c0.4,0.3,0.7,0.5,1,1c0.2,0.4,0.3,0.9,0.3,1.4c0,0.1,0,0.1,0,0.3
				c0,0.1,0,0.2,0,0.3h-4.5c0.1,0.5,0.2,1,0.5,1.3c0.3,0.3,0.7,0.4,1.1,0.4c0.3,0,0.6-0.1,0.9-0.2c0.2-0.1,0.4-0.3,0.5-0.6h1.3
				c-0.1,0.5-0.5,1-0.9,1.3C144.6,20.1,144.1,20.3,143.3,20.3z M143.3,15.3c-0.4,0-0.7,0.1-1.1,0.3c-0.3,0.2-0.5,0.6-0.5,1.1h3.3
				c0-0.4-0.2-0.9-0.5-1.1C144.2,15.4,143.8,15.3,143.3,15.3z"/>
			<path class="st1" d="M150.2,20.3c-0.5,0-1.1-0.1-1.5-0.3c-0.4-0.3-0.7-0.6-1.1-1.1c-0.3-0.5-0.4-1-0.4-1.6c0-0.6,0.1-1.1,0.4-1.6
				c0.3-0.4,0.6-0.9,1.1-1.1c0.4-0.3,0.9-0.3,1.5-0.3s1.1,0.1,1.5,0.3c0.4,0.3,0.7,0.6,1.1,1.1c0.3,0.5,0.4,1,0.4,1.6
				c0,0.6-0.1,1.1-0.4,1.6c-0.3,0.4-0.6,0.9-1.1,1.1C151.3,20.2,150.8,20.3,150.2,20.3z M150.2,19.3c0.3,0,0.5-0.1,0.9-0.2
				c0.3-0.1,0.5-0.3,0.6-0.6c0.1-0.3,0.2-0.6,0.2-1.1c0-0.4-0.1-0.7-0.2-1.1c-0.1-0.3-0.3-0.5-0.6-0.6c-0.3-0.1-0.5-0.2-0.9-0.2
				c-0.3,0-0.5,0.1-0.9,0.2c-0.3,0.1-0.5,0.3-0.6,0.6c-0.1,0.3-0.2,0.6-0.2,1.1c0,0.4,0.1,0.7,0.2,1.1c0.1,0.3,0.3,0.5,0.6,0.6
				C149.6,19.3,149.9,19.3,150.2,19.3z"/>
			<path class="st1" d="M38.2,32.9c-0.4,0-0.7-0.1-1.1-0.3c-0.3-0.2-0.5-0.4-0.7-0.7c-0.1-0.3-0.2-0.7-0.2-1.1
				c0-0.4,0.1-0.7,0.2-1.1c0.1-0.4,0.3-0.5,0.7-0.7c0.3-0.2,0.6-0.3,1.1-0.3s0.9,0.1,1.1,0.3c0.3,0.2,0.5,0.5,0.5,0.9h-0.5
				c-0.1-0.3-0.2-0.4-0.3-0.6c-0.2-0.1-0.4-0.2-0.7-0.2c-0.3,0-0.5,0.1-0.7,0.2c-0.2,0.1-0.4,0.3-0.5,0.5c-0.1,0.3-0.2,0.5-0.2,0.9
				c0,0.3,0.1,0.6,0.2,0.9c0.1,0.3,0.3,0.4,0.5,0.5c0.2,0.1,0.5,0.2,0.7,0.2c0.3,0,0.5-0.1,0.7-0.2c0.2-0.1,0.3-0.3,0.3-0.6h0.5
				c-0.1,0.4-0.3,0.7-0.5,0.9C39.1,32.7,38.7,32.9,38.2,32.9z"/>
			<path class="st1" d="M44.4,32.9c-0.4,0-0.7-0.1-1.1-0.3c-0.3-0.2-0.5-0.4-0.7-0.7s-0.3-0.7-0.3-1.1c0-0.4,0.1-0.7,0.3-1.1
				c0.1-0.3,0.4-0.5,0.7-0.7s0.6-0.3,1.1-0.3c0.5,0,0.7,0.1,1.1,0.3c0.3,0.2,0.5,0.4,0.7,0.7c0.1,0.3,0.3,0.7,0.3,1.1
				c0,0.4-0.1,0.7-0.3,1.1c-0.1,0.3-0.4,0.5-0.7,0.7C45.2,32.7,44.9,32.9,44.4,32.9z M44.4,32.4c0.3,0,0.5-0.1,0.7-0.2
				c0.2-0.1,0.4-0.3,0.5-0.5c0.1-0.3,0.2-0.5,0.2-0.9s-0.1-0.6-0.2-0.9c-0.1-0.3-0.3-0.4-0.5-0.5c-0.2-0.1-0.5-0.2-0.7-0.2
				c-0.3,0-0.5,0.1-0.7,0.2c-0.2,0.1-0.4,0.3-0.5,0.5c-0.1,0.3-0.2,0.5-0.2,0.9s0.1,0.6,0.2,0.9c0.1,0.3,0.3,0.4,0.5,0.5
				C43.8,32.3,44.1,32.4,44.4,32.4z"/>
			<path class="st1" d="M49,32.8v-4.1h0.5l2.2,3.2v-3.3h0.5v4.1h-0.5l-2.2-3.3v3.3L49,32.8L49,32.8z"/>
			<path class="st1" d="M56.2,32.9c-0.3,0-0.5-0.1-0.7-0.1c-0.2-0.1-0.4-0.3-0.5-0.4c-0.1-0.2-0.2-0.4-0.2-0.7h0.5
				c0,0.1,0.1,0.3,0.1,0.4c0.1,0.1,0.2,0.2,0.3,0.3c0.1,0.1,0.3,0.1,0.5,0.1c0.3,0,0.5-0.1,0.6-0.2c0.1-0.1,0.2-0.3,0.2-0.5
				c0-0.1,0-0.3-0.1-0.4c-0.1-0.1-0.1-0.2-0.3-0.2c-0.1-0.1-0.3-0.1-0.4-0.1c-0.1-0.1-0.3-0.1-0.5-0.1c-0.3-0.1-0.5-0.2-0.7-0.4
				C55,30.4,55,30.2,55,30c0-0.2,0.1-0.4,0.1-0.5c0.1-0.1,0.3-0.3,0.4-0.4c0.2-0.1,0.4-0.1,0.7-0.1s0.5,0.1,0.7,0.1s0.3,0.2,0.4,0.4
				c0.1,0.1,0.1,0.3,0.1,0.5h-0.5c0-0.1,0-0.2-0.1-0.3s-0.1-0.2-0.3-0.3c-0.1-0.1-0.3-0.1-0.4-0.1c-0.2,0-0.4,0.1-0.5,0.1
				c-0.1,0.1-0.2,0.3-0.2,0.5c0,0.1,0.1,0.3,0.1,0.4c0.1,0.1,0.2,0.1,0.4,0.2s0.3,0.1,0.6,0.2c0.2,0.1,0.3,0.1,0.5,0.2
				c0.1,0.1,0.3,0.2,0.3,0.3c0.1,0.1,0.1,0.3,0.1,0.5s-0.1,0.3-0.1,0.5c-0.1,0.1-0.3,0.3-0.5,0.4C56.8,32.8,56.5,32.9,56.2,32.9z"/>
			<path class="st1" d="M61.6,32.9c-0.3,0-0.5-0.1-0.7-0.1c-0.2-0.1-0.4-0.3-0.5-0.5c-0.1-0.2-0.2-0.5-0.2-0.9v-2.6h0.5v2.6
				c0,0.4,0.1,0.7,0.3,0.9c0.2,0.2,0.4,0.3,0.7,0.3c0.3,0,0.5-0.1,0.7-0.3c0.2-0.2,0.3-0.5,0.3-0.9v-2.6h0.5v2.6
				c0,0.3-0.1,0.6-0.2,0.9c-0.1,0.2-0.3,0.4-0.5,0.5C62.2,32.8,61.9,32.9,61.6,32.9z"/>
			<path class="st1" d="M65.9,32.8v-4.1h0.5v3.7h1.9v0.4H65.9L65.9,32.8z"/>
			<path class="st1" d="M71.1,32.8v-3.6h-1.2v-0.4h3v0.4h-1.2v3.6H71.1z"/>
			<path class="st1" d="M77,32.9c-0.4,0-0.7-0.1-1.1-0.3c-0.3-0.2-0.5-0.4-0.7-0.7c-0.1-0.3-0.3-0.7-0.3-1.1c0-0.4,0.1-0.7,0.3-1.1
				c0.1-0.3,0.4-0.5,0.7-0.7s0.6-0.3,1.1-0.3c0.4,0,0.7,0.1,1.1,0.3c0.3,0.2,0.5,0.4,0.7,0.7c0.1,0.3,0.3,0.7,0.3,1.1
				c0,0.4-0.1,0.7-0.3,1.1c-0.1,0.3-0.4,0.5-0.7,0.7C77.7,32.7,77.4,32.9,77,32.9z M77,32.4c0.3,0,0.5-0.1,0.7-0.2s0.4-0.3,0.5-0.5
				c0.1-0.3,0.2-0.5,0.2-0.9s-0.1-0.6-0.2-0.9c-0.1-0.3-0.3-0.4-0.5-0.5C77.5,29.1,77.2,29,77,29c-0.3,0-0.5,0.1-0.7,0.2
				s-0.4,0.3-0.5,0.5c-0.1,0.3-0.2,0.5-0.2,0.9s0.1,0.6,0.2,0.9c0.1,0.3,0.3,0.4,0.5,0.5C76.4,32.3,76.7,32.4,77,32.4z"/>
			<path class="st1" d="M81.6,32.8v-4.1H83c0.3,0,0.5,0.1,0.7,0.1c0.2,0.1,0.3,0.3,0.4,0.4c0.1,0.2,0.1,0.3,0.1,0.6
				s-0.1,0.5-0.2,0.7c-0.1,0.2-0.3,0.3-0.6,0.4l0.9,1.8h-0.6L82.9,31l0,0h-0.7v1.7h-0.5V32.8z M82.1,30.7h0.7c0.3,0,0.5-0.1,0.7-0.2
				c0.1-0.1,0.2-0.3,0.2-0.5c0-0.2-0.1-0.4-0.2-0.5c-0.1-0.1-0.3-0.2-0.7-0.2h-0.7V30.7z"/>
			<path class="st1" d="M86.7,32.8l1.5-4.1h0.5l1.5,4.1h-0.4l-0.3-1.1h-1.8l-0.3,1.1H86.7z M87.7,31.3h1.5l-0.7-2L87.7,31.3z"/>
			<path class="st1" d="M96.1,32.8v-4.1h0.5v4.1H96.1z"/>
			<path class="st1" d="M99.3,32.8v-4.1h0.5L102,32v-3.3h0.5v4.1H102l-2.2-3.3v3.3H99.3z"/>
			<path class="st1" d="M105.1,32.8v-4.1h0.5l1.5,2.9l1.5-2.9h0.5v4.1h-0.5v-3.2l-1.3,2.6H107l-1.3-2.6v3.2H105.1z"/>
			<path class="st1" d="M113.9,32.9c-0.4,0-0.7-0.1-1.1-0.3c-0.3-0.2-0.5-0.4-0.7-0.7c-0.1-0.3-0.3-0.7-0.3-1.1
				c0-0.4,0.1-0.7,0.3-1.1c0.1-0.3,0.4-0.5,0.7-0.7s0.6-0.3,1.1-0.3c0.4,0,0.7,0.1,1.1,0.3c0.3,0.2,0.5,0.4,0.7,0.7
				c0.1,0.3,0.3,0.7,0.3,1.1c0,0.4-0.1,0.7-0.3,1.1c-0.1,0.3-0.4,0.5-0.7,0.7C114.7,32.7,114.3,32.9,113.9,32.9z M113.9,32.4
				c0.3,0,0.5-0.1,0.7-0.2s0.4-0.3,0.5-0.5c0.1-0.3,0.2-0.5,0.2-0.9s-0.1-0.6-0.2-0.9c-0.1-0.3-0.3-0.4-0.5-0.5
				c-0.2-0.1-0.5-0.2-0.7-0.2s-0.5,0.1-0.7,0.2s-0.4,0.3-0.5,0.5c-0.1,0.3-0.2,0.5-0.2,0.9s0.1,0.6,0.2,0.9c0.1,0.3,0.3,0.4,0.5,0.5
				C113.3,32.3,113.6,32.4,113.9,32.4z"/>
			<path class="st1" d="M118.5,32.8v-4.1h1.4c0.3,0,0.5,0.1,0.7,0.1c0.2,0.1,0.3,0.2,0.4,0.3c0.1,0.1,0.1,0.3,0.1,0.5
				c0,0.3-0.1,0.5-0.2,0.6c-0.1,0.1-0.3,0.3-0.5,0.3c0.1,0,0.3,0.1,0.4,0.2c0.1,0.1,0.2,0.2,0.3,0.3c0.1,0.1,0.1,0.3,0.1,0.5
				c0,0.2-0.1,0.4-0.1,0.5c-0.1,0.1-0.3,0.3-0.4,0.4c-0.2,0.1-0.4,0.1-0.7,0.1h-1.6V32.8z M119,30.5h0.9c0.3,0,0.5-0.1,0.6-0.2
				s0.2-0.3,0.2-0.5c0-0.2-0.1-0.3-0.2-0.5s-0.3-0.2-0.6-0.2H119V30.5z M119,32.4h0.9c0.3,0,0.5-0.1,0.6-0.2s0.2-0.3,0.2-0.5
				c0-0.2-0.1-0.4-0.2-0.5s-0.3-0.2-0.6-0.2H119V32.4z"/>
			<path class="st1" d="M123.9,32.8v-4.1h0.5v4.1H123.9z"/>
			<path class="st1" d="M127.1,32.8v-4.1h0.5v3.7h1.9v0.4H127.1L127.1,32.8z"/>
			<path class="st1" d="M132.1,32.8v-4.1h0.5v4.1H132.1z"/>
			<path class="st1" d="M135,32.8l1.5-4.1h0.5l1.5,4.1H138l-0.3-1.1h-1.8l-0.3,1.1H135z M136.1,31.3h1.5l-0.7-2L136.1,31.3z"/>
			<path class="st1" d="M141.1,32.8v-4.1h1.3c0.3,0,0.5,0.1,0.7,0.1c0.2,0.1,0.3,0.3,0.4,0.4c0.1,0.2,0.1,0.3,0.1,0.6
				s-0.1,0.5-0.2,0.7c-0.1,0.2-0.3,0.3-0.6,0.4l0.9,1.8h-0.6l-0.9-1.7h-0.1h-0.7v1.7h-0.5V32.8z M141.5,30.7h0.7
				c0.3,0,0.5-0.1,0.7-0.2s0.2-0.3,0.2-0.5c0-0.2-0.1-0.4-0.2-0.5s-0.3-0.2-0.7-0.2h-0.7V30.7z"/>
			<path class="st1" d="M146.3,32.8v-4.1h0.5v4.1H146.3z"/>
			<path class="st1" d="M149.4,32.8l1.5-4.1h0.5l1.5,4.1h-0.5l-0.3-1.1h-1.8l-0.3,1.1H149.4z M150.4,31.3h1.5l-0.7-2L150.4,31.3z"/>
		</g>
		<line class="st2" x1="36.2" y1="24.4" x2="154.8" y2="24.4"/>
	</g>
</g>
</svg>
