<?xml version="1.0" encoding="utf-8"?>
<!-- Generator: Adobe Illustrator 24.0.1, SVG Export Plug-In . SVG Version: 6.00 Build 0)  -->
<svg version="1.1" id="Layer_1" xmlns="http://www.w3.org/2000/svg" xmlns:xlink="http://www.w3.org/1999/xlink" x="0px" y="0px"
	 viewBox="0 0 112 29.9" style="enable-background:new 0 0 112 29.9;" xml:space="preserve">
<style type="text/css">
	.st0{fill:#FF9718;}
	.st1{fill:#FFFFFF;}
	.st2{fill:#FFFFFF;stroke:#FFFFFF;stroke-width:8.637944e-02;stroke-miterlimit:10;}
</style>
<g>
	<g>
		<path class="st0" d="M8.3,11.1L8.3,11.1C8.3,11.2,8.3,11.1,8.3,11.1z"/>
		<path class="st0" d="M9.8,24.9c0.2,0,0.5,0,0.8-0.1H9.2C9.3,24.9,9.5,24.9,9.8,24.9z"/>
		<path class="st0" d="M8.3,11L8.3,11L8.3,11z"/>
		<g>
			<path class="st0" d="M16.8,16.6L16.8,16.6c0,0-3.3-3.8-3.5-4c-0.1-0.1-0.7-0.9-1.1-1.6c-0.4-0.5-0.6-1.1-0.6-1.8c0-1.6,1.3-3,3-3
				s3,1.3,3,3c0,1.3-0.9,2.5-2.1,2.9l2.3,2.7c0.5-0.3,0.9-0.6,1.3-1.1C20.3,12.6,21,11,21,9.3s-0.6-3.3-1.9-4.5
				c-1.2-1.2-2.8-1.9-4.5-1.9s-3.3,0.7-4.5,1.9C8.9,5.9,8.2,7.6,8.2,9.3c0,0.6,0.1,1.1,0.2,1.7V11v0.1c0.4,1.2,1.3,2.4,2,3.2
				c0.8,0.9,1.1,1.2,1.4,1.6c0.3,0.4,1.1,1.4,1.1,2.4c0,1.6-1.3,3-3,3s-3-1.3-3-3c0-1.4,0.9-2.6,2.2-2.9c-0.4-0.4-0.8-0.9-1.1-1.6
				c-0.3-0.5-0.5-0.9-0.7-1.4c-0.7,0.3-1.3,0.8-1.9,1.3c-1.2,1.2-1.9,2.8-1.9,4.5c0,1.7,0.6,3.3,1.9,4.5c1.1,1.1,2.4,1.7,3.8,1.8
				h1.4c1.4-0.1,2.8-0.8,3.8-1.8c0.6-0.6,1.1-1.3,1.4-2.1l3.3,4h4.5L16.8,16.6z"/>
		</g>
	</g>
	<g>
		<g>
			<path class="st1" d="M29.2,14.2c-0.6,0-1.1-0.1-1.5-0.4c-0.4-0.2-0.8-0.6-0.9-1.1c-0.3-0.4-0.4-1-0.4-1.6c0-0.6,0.1-1.1,0.4-1.6
				c0.2-0.4,0.5-0.8,0.9-1.1c0.4-0.2,0.9-0.4,1.5-0.4c0.7,0,1.3,0.1,1.6,0.5c0.4,0.4,0.7,0.8,0.8,1.4h-1c-0.1-0.4-0.2-0.6-0.5-0.8
				c-0.2-0.2-0.6-0.3-1-0.3c-0.6,0-1.1,0.2-1.4,0.6c-0.4,0.4-0.5,0.9-0.5,1.6s0.1,1.3,0.5,1.6c0.4,0.4,0.8,0.6,1.4,0.6
				c0.4,0,0.8-0.1,1-0.3c0.2-0.2,0.4-0.4,0.5-0.8h1.1c-0.1,0.6-0.4,1.1-0.8,1.3C30.4,14.1,29.8,14.2,29.2,14.2z"/>
			<path class="st1" d="M34,14.2c-0.4,0-0.6-0.1-0.9-0.1c-0.2-0.1-0.4-0.2-0.5-0.4c-0.1-0.2-0.1-0.4-0.1-0.6c0-0.4,0.1-0.7,0.4-0.9
				c0.3-0.2,0.8-0.4,1.3-0.4h1.1v-0.1c0-0.3-0.1-0.5-0.2-0.7c-0.1-0.1-0.4-0.2-0.7-0.2c-0.2,0-0.4,0.1-0.6,0.2
				c-0.2,0.1-0.3,0.3-0.4,0.5h-0.9c0.1-0.3,0.1-0.5,0.3-0.8c0.2-0.2,0.4-0.4,0.6-0.5c0.2-0.1,0.5-0.1,0.9-0.1c0.6,0,1,0.1,1.3,0.4
				c0.3,0.3,0.4,0.7,0.4,1.3v2.6h-0.8l-0.1-0.7c-0.1,0.2-0.3,0.4-0.5,0.5C34.6,14.2,34.3,14.2,34,14.2z M34.1,13.6
				c0.2,0,0.4-0.1,0.6-0.1c0.1-0.1,0.3-0.2,0.4-0.4c0.1-0.2,0.1-0.4,0.1-0.6h-1c-0.4,0-0.6,0.1-0.8,0.2c-0.1,0.1-0.2,0.2-0.2,0.4
				s0.1,0.4,0.2,0.4C33.7,13.5,33.9,13.6,34.1,13.6z"/>
			<path class="st1" d="M38.9,14.2c-0.4,0-0.8-0.1-0.9-0.3c-0.2-0.2-0.4-0.5-0.4-1.1v-2.1h-0.7V10h0.7l0.1-1.1h0.8V10h1.1v0.8h-1.1
				v2.1c0,0.2,0.1,0.4,0.1,0.4c0.1,0.1,0.2,0.1,0.5,0.1h0.4v0.8C39.4,14.2,38.9,14.2,38.9,14.2z"/>
			<path class="st1" d="M42.2,14.2c-0.4,0-0.8-0.1-0.9-0.3c-0.2-0.2-0.4-0.5-0.4-1.1v-2.1h-0.7V10h0.7L41,8.9h0.8V10h1.1v0.8h-1.1
				v2.1c0,0.2,0.1,0.4,0.1,0.4c0.1,0.1,0.2,0.1,0.5,0.1h0.4v0.8C42.8,14.2,42.2,14.2,42.2,14.2z"/>
			<path class="st1" d="M45.2,14.2c-0.4,0-0.6-0.1-0.9-0.1c-0.2-0.1-0.4-0.2-0.5-0.4c-0.1-0.2-0.1-0.4-0.1-0.6
				c0-0.4,0.1-0.7,0.4-0.9c0.3-0.2,0.8-0.4,1.3-0.4h1.1v-0.1c0-0.3-0.1-0.5-0.2-0.7c-0.1-0.1-0.4-0.2-0.7-0.2
				c-0.2,0-0.4,0.1-0.6,0.2c-0.2,0.1-0.3,0.3-0.4,0.5h-0.9c0.1-0.3,0.1-0.5,0.3-0.8c0.2-0.2,0.4-0.4,0.6-0.5
				c0.2-0.1,0.5-0.1,0.9-0.1c0.6,0,1,0.1,1.3,0.4c0.3,0.3,0.4,0.7,0.4,1.3v2.6h-0.8l-0.1-0.7c-0.1,0.2-0.3,0.4-0.5,0.5
				C45.9,14.2,45.6,14.2,45.2,14.2z M45.5,13.6c0.2,0,0.4-0.1,0.6-0.1c0.1-0.1,0.3-0.2,0.4-0.4c0.1-0.2,0.1-0.4,0.1-0.6h-1
				c-0.4,0-0.6,0.1-0.8,0.2c-0.1,0.1-0.2,0.2-0.2,0.4s0.1,0.4,0.2,0.4C45,13.5,45.2,13.6,45.5,13.6z"/>
			<path class="st1" d="M48.5,14.2V10h0.8l0.1,0.7c0.1-0.2,0.3-0.4,0.5-0.6c0.2-0.1,0.5-0.2,0.9-0.2c0.5,0,0.9,0.1,1.2,0.4
				c0.3,0.3,0.4,0.8,0.4,1.4V14h-0.9v-2.3c0-0.8-0.4-1.2-1-1.2c-0.4,0-0.6,0.1-0.8,0.4c-0.2,0.2-0.3,0.5-0.3,1V14h-0.9L48.5,14.2
				L48.5,14.2z"/>
			<path class="st1" d="M55.3,14.2c-0.4,0-0.8-0.1-1.1-0.2c-0.3-0.2-0.5-0.4-0.8-0.8c-0.2-0.3-0.2-0.7-0.2-1.1
				c0-0.4,0.1-0.8,0.2-1.1c0.2-0.4,0.4-0.6,0.8-0.8c0.3-0.2,0.7-0.3,1.1-0.3c0.4,0,0.8,0.1,1.1,0.2c0.3,0.2,0.5,0.4,0.7,0.7
				c0.1,0.3,0.2,0.6,0.2,1c0,0.1,0,0.1,0,0.2c0,0.1,0,0.1,0,0.2h-3.2c0.1,0.4,0.1,0.7,0.4,0.9c0.2,0.2,0.5,0.3,0.8,0.3
				c0.2,0,0.4-0.1,0.6-0.1c0.1-0.1,0.3-0.2,0.4-0.4h0.9c-0.1,0.4-0.4,0.7-0.6,0.9C56.2,14.1,55.8,14.2,55.3,14.2z M55.3,10.7
				c-0.3,0-0.5,0.1-0.8,0.2c-0.2,0.1-0.4,0.4-0.4,0.8h2.3c0-0.3-0.1-0.6-0.4-0.8C55.9,10.8,55.6,10.7,55.3,10.7z"/>
			<path class="st1" d="M60.1,14.2c-0.4,0-0.8-0.1-1.1-0.2c-0.3-0.2-0.5-0.4-0.8-0.8c-0.2-0.4-0.2-0.7-0.2-1.1
				c0-0.4,0.1-0.8,0.3-1.1c0.2-0.3,0.4-0.6,0.8-0.8c0.3-0.2,0.6-0.2,1.1-0.2c0.4,0,0.8,0.1,1.1,0.2c0.3,0.2,0.5,0.4,0.8,0.8
				c0.2,0.3,0.3,0.7,0.3,1.1c0,0.4-0.1,0.8-0.3,1.1c-0.2,0.3-0.4,0.6-0.8,0.8C60.9,14.2,60.6,14.2,60.1,14.2z M60.1,13.5
				c0.2,0,0.4-0.1,0.6-0.1c0.2-0.1,0.4-0.2,0.4-0.4c0.1-0.2,0.1-0.4,0.1-0.8c0-0.3-0.1-0.5-0.1-0.8C61.1,11.1,61,11,60.8,11
				c-0.2-0.1-0.4-0.1-0.6-0.1s-0.4,0.1-0.6,0.1c-0.2,0.1-0.4,0.2-0.4,0.4c-0.1,0.2-0.1,0.4-0.1,0.8c0,0.3,0.1,0.5,0.1,0.8
				c0.1,0.2,0.2,0.4,0.4,0.4C59.8,13.5,60,13.5,60.1,13.5z"/>
			<path class="st1" d="M67.1,14.2c-0.4,0-0.8-0.1-1.1-0.2c-0.4-0.1-0.5-0.4-0.7-0.6c-0.1-0.2-0.2-0.6-0.2-0.9
				c0-0.4,0.1-0.8,0.4-1.1c0.2-0.3,0.5-0.5,0.9-0.8c-0.2-0.2-0.3-0.4-0.4-0.5c-0.1-0.2-0.1-0.4-0.1-0.6c0-0.4,0.1-0.7,0.4-0.9
				c0.3-0.2,0.6-0.4,1.1-0.4c0.3,0,0.6,0.1,0.9,0.2c0.2,0.1,0.4,0.3,0.5,0.5c0.1,0.2,0.2,0.4,0.1,0.7h-0.9c0-0.2-0.1-0.4-0.2-0.5
				C67.7,9.1,67.6,9,67.4,9c-0.2,0-0.4,0.1-0.5,0.2c-0.1,0.1-0.2,0.2-0.2,0.4c0,0.1,0.1,0.3,0.1,0.4c0.1,0.1,0.2,0.4,0.4,0.5
				l1.8,1.8c0.1-0.2,0.3-0.4,0.4-0.8l0.2-0.4h0.9l-0.4,0.6c-0.2,0.4-0.4,0.8-0.6,1.1l1.3,1.3h-1.1l-0.7-0.7
				c-0.3,0.3-0.6,0.5-0.9,0.6C67.9,14.2,67.5,14.2,67.1,14.2z M65.9,12.5c0,0.3,0.1,0.5,0.4,0.8c0.2,0.2,0.5,0.3,0.9,0.3
				c0.2,0,0.5-0.1,0.8-0.1c0.2-0.1,0.4-0.2,0.6-0.5L67,11.2c-0.3,0.1-0.5,0.3-0.7,0.5C66,12,65.9,12.2,65.9,12.5z"/>
			<path class="st1" d="M76.3,14.2c-0.6,0-1.1-0.1-1.5-0.4c-0.4-0.2-0.8-0.6-0.9-1.1c-0.2-0.4-0.4-1-0.4-1.6c0-0.6,0.1-1.1,0.4-1.6
				c0.3-0.4,0.5-0.8,0.9-1.1c0.4-0.2,0.9-0.4,1.5-0.4c0.7,0,1.3,0.1,1.6,0.5c0.4,0.4,0.7,0.8,0.8,1.4h-1c-0.1-0.4-0.2-0.6-0.5-0.8
				c-0.2-0.2-0.6-0.3-1-0.3c-0.6,0-1.1,0.2-1.4,0.6c-0.4,0.4-0.5,0.9-0.5,1.6s0.1,1.3,0.5,1.6c0.4,0.4,0.8,0.6,1.4,0.6
				c0.4,0,0.8-0.1,1-0.3c0.2-0.2,0.4-0.4,0.5-0.8h1c-0.1,0.6-0.4,1.1-0.8,1.3C77.5,14.1,77,14.2,76.3,14.2z"/>
			<path class="st1" d="M81.1,14.2c-0.4,0-0.6-0.1-0.9-0.1c-0.2-0.1-0.4-0.2-0.5-0.4c-0.1-0.2-0.1-0.4-0.1-0.6
				c0-0.4,0.1-0.7,0.4-0.9c0.3-0.2,0.8-0.4,1.3-0.4h1.1v-0.1c0-0.3-0.1-0.5-0.2-0.7c-0.2-0.1-0.4-0.2-0.7-0.2
				c-0.2,0-0.4,0.1-0.6,0.2c-0.2,0.1-0.3,0.3-0.4,0.5h-0.9c0.1-0.3,0.1-0.5,0.3-0.8c0.1-0.2,0.4-0.4,0.6-0.5
				c0.2-0.1,0.5-0.1,0.9-0.1c0.6,0,1,0.1,1.3,0.4c0.3,0.3,0.4,0.7,0.4,1.3v2.6h-0.8l-0.1-0.7c-0.1,0.2-0.3,0.4-0.5,0.5
				C81.7,14.2,81.5,14.2,81.1,14.2z M81.3,13.6c0.2,0,0.4-0.1,0.6-0.1c0.1-0.1,0.3-0.2,0.4-0.4c0.1-0.2,0.1-0.4,0.1-0.6h-1
				c-0.4,0-0.6,0.1-0.8,0.2c-0.1,0.1-0.2,0.2-0.2,0.4s0.1,0.4,0.2,0.4C80.8,13.5,81,13.6,81.3,13.6z"/>
			<path class="st1" d="M86,14.2c-0.4,0-0.8-0.1-0.9-0.3c-0.2-0.2-0.4-0.5-0.4-1.1v-2.1H84V10h0.7l0.1-1.1h0.8V10h1.1v0.8h-1.1v2.1
				c0,0.2,0.1,0.4,0.1,0.4c0.1,0.1,0.2,0.1,0.5,0.1h0.4v0.8C86.6,14.2,86,14.2,86,14.2z"/>
			<path class="st1" d="M89.4,14.2c-0.4,0-0.8-0.1-0.9-0.3c-0.2-0.2-0.4-0.5-0.4-1.1v-2.1h-0.7V10h0.7l0.1-1.1H89V10h1.1v0.8h-1.2
				v2.1c0,0.2,0.1,0.4,0.1,0.4c0.1,0.1,0.2,0.1,0.5,0.1H90v0.8C90,14.2,89.4,14.2,89.4,14.2z"/>
			<path class="st1" d="M92.4,14.2c-0.4,0-0.6-0.1-0.9-0.1c-0.2-0.1-0.4-0.2-0.5-0.4c-0.1-0.2-0.1-0.4-0.1-0.6
				c0-0.4,0.1-0.7,0.4-0.9c0.3-0.2,0.8-0.4,1.3-0.4h1.1v-0.1c0-0.3-0.1-0.5-0.2-0.7c-0.2-0.1-0.4-0.2-0.7-0.2
				c-0.2,0-0.4,0.1-0.6,0.2c-0.2,0.1-0.3,0.3-0.4,0.5h-1c0.1-0.3,0.1-0.5,0.3-0.8c0.1-0.2,0.4-0.4,0.6-0.5c0.3-0.1,0.5-0.1,0.9-0.1
				c0.6,0,1,0.1,1.3,0.4c0.3,0.3,0.4,0.7,0.4,1.3v2.6h-0.8l-0.1-0.7c-0.1,0.2-0.3,0.4-0.5,0.5C93,14.2,92.8,14.2,92.4,14.2z
				 M92.6,13.6c0.2,0,0.4-0.1,0.6-0.1c0.1-0.1,0.3-0.2,0.4-0.4c0.1-0.2,0.1-0.4,0.1-0.6h-0.9c-0.4,0-0.6,0.1-0.8,0.2
				c-0.1,0.1-0.2,0.2-0.2,0.4s0.1,0.4,0.2,0.4C92.1,13.5,92.3,13.6,92.6,13.6z"/>
			<path class="st1" d="M95.6,14.2V10h0.8l0.1,0.7c0.1-0.2,0.3-0.4,0.5-0.6c0.2-0.1,0.5-0.2,0.9-0.2c0.5,0,0.9,0.1,1.2,0.4
				s0.4,0.8,0.4,1.4V14h-0.9v-2.3c0-0.8-0.4-1.2-1-1.2c-0.4,0-0.6,0.1-0.8,0.4c-0.2,0.2-0.3,0.5-0.3,1V14h-0.9L95.6,14.2L95.6,14.2z
				"/>
			<path class="st1" d="M102.4,14.2c-0.4,0-0.8-0.1-1.1-0.2c-0.3-0.2-0.5-0.4-0.8-0.8c-0.2-0.3-0.2-0.7-0.2-1.1
				c0-0.4,0.1-0.8,0.2-1.1c0.1-0.4,0.4-0.6,0.8-0.8c0.3-0.2,0.7-0.3,1.1-0.3c0.4,0,0.8,0.1,1.1,0.2c0.3,0.2,0.5,0.4,0.7,0.7
				c0.1,0.3,0.2,0.6,0.2,1c0,0.1,0,0.1,0,0.2c0,0.1,0,0.1,0,0.2h-3.2c0.1,0.4,0.1,0.7,0.4,0.9c0.2,0.2,0.5,0.3,0.8,0.3
				c0.2,0,0.4-0.1,0.6-0.1c0.1-0.1,0.3-0.2,0.4-0.4h0.9c-0.1,0.4-0.4,0.7-0.6,0.9C103.4,14.1,103,14.2,102.4,14.2z M102.4,10.7
				c-0.3,0-0.5,0.1-0.8,0.2c-0.2,0.1-0.4,0.4-0.4,0.8h2.3c0-0.3-0.1-0.6-0.4-0.8C103.1,10.8,102.8,10.7,102.4,10.7z"/>
			<path class="st1" d="M107.3,14.2c-0.4,0-0.8-0.1-1.1-0.2c-0.3-0.2-0.5-0.4-0.8-0.8c-0.2-0.4-0.3-0.7-0.3-1.1
				c0-0.4,0.1-0.8,0.3-1.1c0.2-0.3,0.4-0.6,0.8-0.8c0.3-0.2,0.6-0.2,1.1-0.2c0.4,0,0.8,0.1,1.1,0.2c0.3,0.2,0.5,0.4,0.8,0.8
				c0.2,0.4,0.3,0.7,0.3,1.1c0,0.4-0.1,0.8-0.3,1.1c-0.2,0.3-0.4,0.6-0.8,0.8C108.1,14.2,107.7,14.2,107.3,14.2z M107.3,13.5
				c0.2,0,0.4-0.1,0.6-0.1c0.2-0.1,0.4-0.2,0.4-0.4c0.1-0.2,0.1-0.4,0.1-0.8c0-0.3-0.1-0.5-0.1-0.8c-0.1-0.2-0.2-0.4-0.4-0.4
				s-0.4-0.1-0.6-0.1c-0.2,0-0.4,0.1-0.6,0.1c-0.2,0.1-0.4,0.2-0.4,0.4c-0.1,0.2-0.1,0.4-0.1,0.8c0,0.3,0.1,0.5,0.1,0.8
				c0.1,0.2,0.2,0.4,0.4,0.4C106.9,13.5,107.1,13.5,107.3,13.5z"/>
			<path class="st1" d="M28,23.2c-0.3,0-0.5-0.1-0.8-0.2c-0.2-0.1-0.4-0.3-0.5-0.5c-0.1-0.2-0.1-0.5-0.1-0.8s0.1-0.5,0.1-0.8
				c0.1-0.3,0.2-0.4,0.5-0.5c0.2-0.1,0.4-0.2,0.8-0.2c0.4,0,0.6,0.1,0.8,0.2c0.2,0.1,0.4,0.4,0.4,0.6h-0.4c-0.1-0.2-0.1-0.3-0.2-0.4
				c-0.1-0.1-0.3-0.1-0.5-0.1c-0.2,0-0.4,0.1-0.5,0.1c-0.1,0.1-0.3,0.2-0.4,0.4c-0.1,0.2-0.1,0.4-0.1,0.6c0,0.2,0.1,0.4,0.1,0.6
				c0.1,0.2,0.2,0.3,0.4,0.4c0.1,0.1,0.4,0.1,0.5,0.1c0.2,0,0.4-0.1,0.5-0.1c0.1-0.1,0.2-0.2,0.2-0.4h0.4c-0.1,0.3-0.2,0.5-0.4,0.6
				C28.6,23,28.3,23.2,28,23.2z"/>
			<path class="st1" d="M32.4,23.2c-0.3,0-0.5-0.1-0.8-0.2c-0.2-0.1-0.4-0.3-0.5-0.5s-0.2-0.5-0.2-0.8s0.1-0.5,0.2-0.8
				c0.1-0.2,0.3-0.4,0.5-0.5c0.2-0.1,0.4-0.2,0.8-0.2c0.4,0,0.5,0.1,0.8,0.2c0.2,0.1,0.4,0.3,0.5,0.5c0.1,0.2,0.2,0.5,0.2,0.8
				s-0.1,0.5-0.2,0.8c-0.1,0.2-0.3,0.4-0.5,0.5C32.9,23,32.7,23.2,32.4,23.2z M32.4,22.8c0.2,0,0.4-0.1,0.5-0.1
				c0.1-0.1,0.3-0.2,0.4-0.4c0.1-0.2,0.1-0.4,0.1-0.6s-0.1-0.4-0.1-0.6c-0.1-0.2-0.2-0.3-0.4-0.4c-0.1-0.1-0.4-0.1-0.5-0.1
				c-0.2,0-0.4,0.1-0.5,0.1c-0.1,0.1-0.3,0.2-0.4,0.4c-0.1,0.2-0.1,0.4-0.1,0.6s0.1,0.4,0.1,0.6c0.1,0.2,0.2,0.3,0.4,0.4
				C31.9,22.7,32.1,22.8,32.4,22.8z"/>
			<path class="st1" d="M35.6,23.1v-2.9H36l1.6,2.3v-2.3h0.4V23h-0.4L36,20.7V23L35.6,23.1L35.6,23.1z"/>
			<path class="st1" d="M40.7,23.2c-0.2,0-0.4-0.1-0.5-0.1c-0.1-0.1-0.3-0.2-0.4-0.3c-0.1-0.1-0.1-0.3-0.1-0.5h0.4
				c0,0.1,0.1,0.2,0.1,0.3c0.1,0.1,0.1,0.1,0.2,0.2s0.2,0.1,0.4,0.1c0.2,0,0.4-0.1,0.4-0.1c0.1-0.1,0.1-0.2,0.1-0.4
				c0-0.1,0-0.2-0.1-0.3c-0.1-0.1-0.1-0.1-0.2-0.1c-0.1-0.1-0.2-0.1-0.3-0.1c-0.1-0.1-0.2-0.1-0.4-0.1c-0.2-0.1-0.4-0.1-0.5-0.3
				c0-0.1,0-0.3,0-0.4c0-0.1,0.1-0.3,0.1-0.4c0.1-0.1,0.2-0.2,0.3-0.3c0.1-0.1,0.3-0.1,0.5-0.1c0.2,0,0.4,0.1,0.5,0.1
				s0.2,0.1,0.3,0.3c0.1,0.1,0.1,0.2,0.1,0.4h-0.4c0-0.1,0-0.1-0.1-0.2c-0.1-0.1-0.1-0.1-0.2-0.2c-0.1-0.1-0.2-0.1-0.3-0.1
				c-0.1,0-0.3,0.1-0.4,0.1c-0.1,0.1-0.1,0.2-0.1,0.4c0,0.1,0.1,0.2,0.1,0.3c0.1,0.1,0.1,0.1,0.3,0.1c0.1,0.1,0.2,0.1,0.4,0.1
				c0.1,0.1,0.2,0.1,0.4,0.1c0.1,0.1,0.2,0.1,0.2,0.2c0.1,0.1,0.1,0.2,0.1,0.4c0,0.1-0.1,0.2-0.1,0.4c-0.1,0.1-0.2,0.2-0.4,0.3
				C41.1,23.1,40.9,23.2,40.7,23.2z"/>
			<path class="st1" d="M44.5,23.2c-0.2,0-0.4-0.1-0.5-0.1c-0.1-0.1-0.3-0.2-0.4-0.4c-0.1-0.1-0.1-0.4-0.1-0.6v-1.8h0.4v1.8
				c0,0.3,0.1,0.5,0.2,0.6c0.1,0.1,0.3,0.2,0.5,0.2c0.2,0,0.4-0.1,0.5-0.2c0.1-0.1,0.2-0.4,0.2-0.6v-1.8h0.4v1.8
				c0,0.2-0.1,0.4-0.1,0.6c-0.1,0.1-0.2,0.3-0.4,0.4C45,23.1,44.8,23.2,44.5,23.2z"/>
			<path class="st1" d="M47.6,23.1v-2.9h0.4v2.6h1.3v0.3H47.6L47.6,23.1z"/>
			<path class="st1" d="M51.3,23.1v-2.6h-0.9v-0.3h2.1v0.3h-0.9v2.6H51.3z"/>
			<path class="st1" d="M55.5,23.2c-0.3,0-0.5-0.1-0.8-0.2c-0.2-0.1-0.4-0.3-0.5-0.5c-0.1-0.2-0.2-0.5-0.2-0.8s0.1-0.5,0.2-0.8
				c0.1-0.2,0.3-0.4,0.5-0.5c0.2-0.1,0.4-0.2,0.8-0.2c0.3,0,0.5,0.1,0.8,0.2c0.2,0.1,0.4,0.3,0.5,0.5c0.1,0.2,0.2,0.5,0.2,0.8
				s-0.1,0.5-0.2,0.8c-0.1,0.2-0.3,0.4-0.5,0.5C55.9,23,55.7,23.2,55.5,23.2z M55.5,22.8c0.2,0,0.4-0.1,0.5-0.1
				c0.1-0.1,0.3-0.2,0.4-0.4c0.1-0.2,0.1-0.4,0.1-0.6s-0.1-0.4-0.1-0.6c-0.1-0.2-0.2-0.3-0.4-0.4c-0.1-0.2-0.4-0.3-0.5-0.3
				c-0.2,0-0.4,0.1-0.5,0.1c-0.1,0.1-0.3,0.2-0.4,0.4c-0.1,0.2-0.1,0.4-0.1,0.6s0.1,0.4,0.1,0.6c0.1,0.2,0.2,0.3,0.4,0.4
				C55,22.7,55.2,22.8,55.5,22.8z"/>
			<path class="st1" d="M58.7,23.1v-2.9h1c0.2,0,0.4,0.1,0.5,0.1c0.1,0.1,0.2,0.2,0.3,0.3c0.1,0.1,0.1,0.2,0.1,0.4s-0.1,0.4-0.1,0.5
				c-0.1,0.1-0.2,0.2-0.4,0.3l0.6,1.3h-0.4l-0.6-1.2l0,0h-0.5V23L58.7,23.1L58.7,23.1L58.7,23.1z M59.1,21.6h0.5
				c0.2,0,0.4-0.1,0.5-0.1c0.1-0.1,0.1-0.2,0.1-0.4c0-0.1-0.1-0.3-0.1-0.4c-0.1-0.1-0.2-0.1-0.5-0.1h-0.5V21.6z"/>
			<path class="st1" d="M62.3,23.1l1.1-2.9h0.4l1.1,2.9h-0.3l-0.2-0.8H63l-0.2,0.8H62.3z M63,22h1.1l-0.5-1.4L63,22z"/>
			<path class="st1" d="M69,23.1v-2.9h0.4v2.9H69z"/>
			<path class="st1" d="M71.3,23.1v-2.9h0.4l1.6,2.3v-2.3h0.4v2.9h-0.4l-1.6-2.3v2.3H71.3z"/>
			<path class="st1" d="M75.4,23.1v-2.9h0.4l1.1,2.1l1.1-2.1h0.4v2.9h-0.4v-2.3l-0.9,1.8h-0.2l-0.9-1.8v2.3
				C75.8,23.1,75.4,23.1,75.4,23.1z"/>
			<path class="st1" d="M81.6,23.2c-0.3,0-0.5-0.1-0.8-0.2c-0.2-0.1-0.4-0.3-0.5-0.5c-0.1-0.2-0.2-0.5-0.2-0.8s0.1-0.5,0.2-0.8
				c0.1-0.2,0.3-0.4,0.5-0.5c0.2-0.1,0.4-0.2,0.8-0.2c0.3,0,0.5,0.1,0.8,0.2c0.2,0.1,0.4,0.3,0.5,0.5c0.1,0.2,0.2,0.5,0.2,0.8
				s-0.1,0.5-0.2,0.8c-0.1,0.2-0.3,0.4-0.5,0.5C82.2,23,81.9,23.2,81.6,23.2z M81.6,22.8c0.2,0,0.4-0.1,0.5-0.1
				c0.1-0.1,0.3-0.2,0.4-0.4c0.1-0.2,0.1-0.4,0.1-0.6s-0.1-0.4-0.1-0.6c-0.1-0.2-0.2-0.3-0.4-0.4c-0.1-0.1-0.4-0.1-0.5-0.1
				c-0.1,0-0.4,0.1-0.5,0.1c-0.1,0.1-0.3,0.2-0.4,0.4c-0.1,0.2-0.1,0.4-0.1,0.6s0.1,0.4,0.1,0.6c0.1,0.2,0.2,0.3,0.4,0.4
				C81.2,22.7,81.4,22.8,81.6,22.8z"/>
			<path class="st1" d="M84.9,23.1v-2.9h1c0.2,0,0.4,0.1,0.5,0.1c0.1,0.1,0.2,0.1,0.3,0.2c0.1,0.1,0.1,0.2,0.1,0.4
				c0,0.2-0.1,0.4-0.1,0.4c-0.1,0.1-0.2,0.2-0.4,0.2c0.1,0,0.2,0.1,0.3,0.1c0.1,0.1,0.1,0.1,0.2,0.2c0.1,0.1,0.1,0.2,0.1,0.4
				c0,0.1-0.1,0.3-0.1,0.4c-0.1,0.1-0.2,0.2-0.3,0.3c-0.1,0.1-0.3,0.1-0.5,0.1h-1.1L84.9,23.1L84.9,23.1z M85.2,21.5h0.6
				c0.2,0,0.4-0.1,0.4-0.1c0.1-0.1,0.1-0.2,0.1-0.4c0-0.1-0.1-0.2-0.1-0.4c-0.1-0.1-0.2-0.1-0.4-0.1h-0.6V21.5z M85.2,22.8h0.6
				c0.2,0,0.4-0.1,0.4-0.1c0.1-0.1,0.1-0.2,0.1-0.4c0-0.1-0.1-0.3-0.1-0.4c-0.1-0.1-0.2-0.1-0.4-0.1h-0.6V22.8z"/>
			<path class="st1" d="M88.7,23.1v-2.9H89v2.9H88.7z"/>
			<path class="st1" d="M91,23.1v-2.9h0.4v2.6h1.3v0.3H91L91,23.1z"/>
			<path class="st1" d="M94.5,23.1v-2.9h0.4v2.9H94.5z"/>
			<path class="st1" d="M96.6,23.1l1.1-2.9H98l1.1,2.9h-0.4l-0.2-0.8h-1.3L97,23.1H96.6z M97.3,22h1.1l-0.5-1.4L97.3,22z"/>
			<path class="st1" d="M100.9,23.1v-2.9h0.9c0.2,0,0.4,0.1,0.5,0.1c0.1,0.1,0.2,0.2,0.3,0.3c0.1,0.1,0.1,0.2,0.1,0.4
				s-0.1,0.4-0.1,0.5c-0.1,0.1-0.2,0.2-0.4,0.3l0.6,1.3h-0.4l-0.6-1.2h-0.1h-0.5V23h-0.4v0.1H100.9z M101.2,21.6h0.5
				c0.2,0,0.4-0.1,0.5-0.1c0.1-0.1,0.1-0.2,0.1-0.4c0-0.1-0.1-0.3-0.1-0.4s-0.2-0.1-0.5-0.1h-0.5V21.6z"/>
			<path class="st1" d="M104.6,23.1v-2.9h0.4v2.9H104.6z"/>
			<path class="st1" d="M106.8,23.1l1.1-2.9h0.4l1.1,2.9h-0.4l-0.2-0.8h-1.3l-0.2,0.8H106.8z M107.5,22h1.1l-0.5-1.4L107.5,22z"/>
		</g>
		<line class="st2" x1="26.5" y1="17.1" x2="110.6" y2="17.1"/>
	</g>
</g>
</svg>
